# xmcd CD database file
#
# Track frame offsets:
#	150
#	115468
#	194134
#
# Disc length: 4269 seconds
#
# Revision: 0
# Processed by: cddbd v1.5.2PL0 Copyright (c) Steve Scherf et al.
# Submitted via: CDex 1.70beta2
#
DISCID=2b10ab03
DTITLE=Fumio Itabashi - 005 1st Stage
DYEAR=1999
DGENRE=Jazz
TTITLE0=1st Steps
TTITLE1=Kita no Umi
TTITLE2=5 Steps
EXTD=YEAR: 1999
EXTT0=
EXTT1=
EXTT2=
PLAYORDER=
